<svg width="240" height="64" viewBox="0 0 240 64" xmlns="http://www.w3.org/2000/svg">
<g id="img">
	<g>
		<path fill="#F29100" d="M32.416,0H0v5.917c0,0,12.184,0,13.244,0c0,1.121,0,35.497,0,35.497h6.505c0,0,0-34.375,0-35.497
			c1.059,0,13.249,0,13.249,0V0H32.416z"/>
	</g>
	<g>
		<path fill="#F29100" d="M42.462,11.486c-0.72,0.49-1.471,1.437-2.247,2.6c0-1.21,0-3.036,0-3.036h-5.626v30.363h6.142V25.552
			c0-2.013,0.263-3.898,0.788-5.6c0.328-1.028,0.875-1.844,1.631-2.42c0.756-0.577,1.589-0.859,2.539-0.859
			c1.091,0,2.207,0.329,3.311,0.968l0.586,0.336l2.182-5.649l-0.41-0.258c-1.81-1.11-3.625-1.675-5.394-1.675
			C44.697,10.396,43.515,10.763,42.462,11.486z"/>
	</g>
	<g>
		<path fill="#F29100" d="M106.854,15.091c-0.63-1.316-1.49-2.453-2.714-3.243c-1.465-0.963-3.358-1.452-5.63-1.452
			c-2.036,0-3.88,0.468-5.476,1.392c-1.089,0.625-1.985,1.447-2.783,2.358c0-1.196,0-3.096,0-3.096h-5.627v30.363h6.141V25.698
			c0-2.578,0.256-4.561,0.758-5.895c0.487-1.297,1.25-2.254,2.322-2.92c1.086-0.671,2.278-1.01,3.546-1.01
			c1.649,0,2.786,0.457,3.488,1.407c0.73,0.989,1.095,2.54,1.095,4.6v19.534h6.136V23.887c0-2.828,0.629-4.896,1.867-6.14
			c1.255-1.26,2.797-1.874,4.721-1.874c1.027,0,1.897,0.23,2.663,0.708c0.738,0.463,1.234,1.06,1.514,1.811
			c0.299,0.802,0.447,2.173,0.447,4.064v18.957h6.139v-20.62c0-3.479-0.851-6.112-2.516-7.819c-1.676-1.709-4.074-2.579-7.132-2.579
			C112.2,10.396,109.204,12.021,106.854,15.091z"/>
	</g>
	<path fill="#F29100" d="M151.446,31.202c-0.724,1.977-1.685,3.426-2.867,4.291c-1.174,0.877-2.628,1.321-4.313,1.321
		c-2.292,0-4.153-0.773-5.69-2.367c-1.416-1.466-2.193-3.641-2.454-6.351c1.305,0,21.656,0,21.656,0l0.044-1.901
		c0-4.956-1.305-8.868-3.866-11.627c-2.567-2.771-5.926-4.172-9.975-4.172c-4.178,0-7.624,1.431-10.243,4.251
		c-2.615,2.811-3.941,6.791-3.941,11.836c0,4.878,1.315,8.737,3.9,11.461c2.601,2.744,6.156,4.13,10.558,4.13
		c3.499,0,6.422-0.872,8.7-2.597c2.263-1.719,3.848-4.169,4.678-7.276l0.18-0.637l-6.21-0.803L151.446,31.202z M138.697,17.757
		c1.448-1.417,3.192-2.107,5.331-2.107c2.355,0,4.22,0.868,5.692,2.643c0.853,1.008,1.364,2.586,1.621,4.542
		c-1.224,0-13.653,0-14.902,0C136.688,20.765,137.398,19.025,138.697,17.757z"/>
	<path fill="#F29100" d="M188.942,40.56c-0.579-1.067-0.976-2.184-1.163-3.33c-0.202-1.167-0.31-4.071-0.31-8.63v-6.594
		c0-2.268-0.081-3.799-0.252-4.679c-0.319-1.455-0.876-2.674-1.661-3.631c-0.802-0.974-2-1.757-3.664-2.387
		c-1.616-0.604-3.721-0.914-6.253-0.914c-2.562,0-4.847,0.357-6.804,1.064c-2.001,0.725-3.547,1.779-4.612,3.13
		c-1.063,1.348-1.806,3.068-2.271,5.267l-0.132,0.61l5.966,0.812l0.124-0.501c0.498-1.937,1.248-3.284,2.235-4.01
		c1.004-0.74,2.619-1.118,4.807-1.118c2.334,0,4.1,0.52,5.258,1.537c0.798,0.71,1.206,2,1.206,3.833c0,0-0.012,0.468-0.021,0.851
		c-1.859,0.602-4.604,1.13-8.334,1.574l-4.474,0.762c-1.387,0.385-2.642,0.956-3.737,1.702c-1.126,0.756-2.054,1.782-2.748,3.042
		c-0.692,1.254-1.043,2.665-1.043,4.192c0,2.597,0.937,4.762,2.769,6.437c1.829,1.659,4.45,2.497,7.801,2.497
		c1.994,0,3.897-0.341,5.658-1.016c1.537-0.594,3.11-1.613,4.694-2.92c0.207,1.072,0.424,2.129,0.895,2.978l0.163,0.297h6.373
		L188.942,40.56z M180.638,32.694c-0.646,1.329-1.657,2.393-3.026,3.161c-1.406,0.787-3.026,1.184-4.816,1.184
		c-1.769,0-3.117-0.396-3.994-1.173c-0.886-0.764-1.31-1.702-1.31-2.861c0-0.772,0.192-1.435,0.586-2.036
		c0.387-0.604,0.946-1.061,1.686-1.386c0.792-0.346,2.189-0.662,4.136-0.946c3.208-0.464,5.614-1.033,7.414-1.674
		c0.031,0.522,0.073,1.084,0.073,1.084C181.386,30.1,181.135,31.675,180.638,32.694z"/>
	<g>
		<path fill="#F29100" d="M199.429,0h-5.563v41.414H200V0H199.429z"/>
	</g>
	<path fill="#F29100" d="M73.349,31.202c-0.718,1.977-1.678,3.426-2.86,4.291c-1.178,0.877-2.631,1.321-4.316,1.321
		c-2.291,0-4.159-0.773-5.7-2.367c-1.412-1.471-2.189-3.652-2.445-6.351c1.301,0,21.66,0,21.66,0l0.038-1.901
		c0-4.956-1.299-8.868-3.856-11.627c-2.573-2.771-5.936-4.172-9.982-4.172c-4.177,0-7.623,1.431-10.24,4.251
		c-2.619,2.807-3.948,6.791-3.948,11.836c0,4.878,1.313,8.737,3.906,11.461c2.603,2.744,6.155,4.13,10.557,4.13
		c3.5,0,6.428-0.872,8.697-2.597c2.273-1.728,3.85-4.169,4.682-7.276l0.175-0.637l-6.208-0.803L73.349,31.202z M60.609,17.757
		c1.438-1.417,3.185-2.107,5.327-2.107c2.357,0,4.218,0.868,5.694,2.643c0.851,1.013,1.365,2.586,1.623,4.542
		c-1.227,0-13.661,0-14.911,0C58.594,20.765,59.308,19.02,60.609,17.757z"/>
</g>
</svg>
